<?xml version="1.0" encoding="UTF-8"?>
<svg version="1.1" xmlns="http://www.w3.org/2000/svg" width="3125" height="1875">
<path d="M0 0 C1.70636303 -0.00390277 3.41272278 -0.00955097 5.119075 -0.0167709 C9.76257016 -0.0314051 14.40572203 -0.02141643 19.04920566 -0.00703418 C24.07540725 0.00414178 29.10156325 -0.0078892 34.12776184 -0.01687622 C43.95925341 -0.03076916 53.79061603 -0.02328009 63.6221014 -0.00820064 C75.09658192 0.00872301 86.57103088 0.00544084 98.04552003 0.00170528 C118.54157763 -0.00416686 139.03757373 0.0099689 159.53361511 0.03465271 C179.36827403 0.05853696 199.20285066 0.06566955 219.03752136 0.05516052 C240.67978334 0.04371416 262.32200731 0.04186965 283.96426886 0.05625862 C286.27898164 0.05778428 288.59369443 0.05930464 290.90840721 0.06081963 C292.04699394 0.06157744 293.18558067 0.06233525 294.35867003 0.06311603 C302.33266379 0.06783293 310.30664044 0.06602571 318.28063393 0.06175423 C328.02403644 0.05679298 337.76736162 0.06296325 347.51074658 0.08264852 C352.47006721 0.0924256 357.42927088 0.09773152 362.38859749 0.08975601 C411.89606346 0.01875834 459.29141378 5.31092711 500.50260925 35.50120544 C502.06301941 36.63622498 502.06301941 36.63622498 503.654953 37.79417419 C511.78505987 43.8219602 519.20433944 50.50162751 526.50260925 57.50120544 C527.45135925 58.39710388 528.40010925 59.29300232 529.37760925 60.21604919 C536.50556733 67.11113364 542.61720522 74.54699272 548.50260925 82.50120544 C548.90221863 83.04003357 549.301828 83.57886169 549.71354675 84.13401794 C582.08151576 128.23266029 591.98266573 182.87600205 583.998703 236.45433044 C577.50045878 276.36480677 558.51211529 310.26137971 531.1783905 339.57933044 C528.20793709 342.82297884 525.34490921 346.14542992 522.50260925 349.50120544 C522.8993988 349.88228455 523.29618835 350.26336365 523.70500183 350.6559906 C532.2788483 358.93666125 540.22995754 367.33981706 547.32975769 376.92259216 C548.40439324 378.36901046 549.50314083 379.79743316 550.60417175 381.22386169 C582.32377807 423.11648916 591.50701614 477.80847924 584.545578 529.05979919 C582.12045952 545.00284182 577.89050189 560.6853671 571.50260925 575.50120544 C571.21160339 576.18199158 570.92059753 576.86277771 570.62077332 577.56419373 C562.26660604 596.8318208 550.79998696 613.82835099 536.5690155 629.24729919 C534.73520367 631.24750605 532.99223558 633.29463782 531.25260925 635.37620544 C518.44183849 649.97520737 502.31649998 661.93200957 485.50260925 671.50120544 C484.86774597 671.86310974 484.23288269 672.22501404 483.57878113 672.59788513 C469.43989753 680.57907399 454.98284061 686.48269289 439.31510925 690.75120544 C438.0638324 691.10251526 438.0638324 691.10251526 436.78727722 691.46092224 C413.56451157 697.45022254 389.78809495 696.94505554 366.00835395 696.9080385 C360.82371458 696.903259 355.6391106 696.91585785 350.45448303 696.92605591 C340.3312256 696.94315172 330.20803048 696.94410388 320.08476238 696.938843 C311.85553472 696.93478579 303.62632534 696.93626316 295.39709854 696.94159126 C294.22166432 696.94233968 293.0462301 696.94308811 291.83517665 696.94385921 C289.44672444 696.9453908 287.05827223 696.94692915 284.66982003 696.94847418 C262.33450556 696.9621637 239.99922625 696.95678466 217.66391261 696.94528896 C197.24636531 696.93534177 176.82890845 696.94832923 156.41137509 696.97222316 C135.40703427 696.99661753 114.40273557 697.00622233 93.39838088 696.99957043 C81.62141448 696.99608136 69.84451775 696.99829072 58.0675621 697.01582146 C48.05199853 697.03054683 38.03655381 697.03117344 28.02099256 697.01375055 C22.91547594 697.00524454 17.81017163 697.00308187 12.70466614 697.0184021 C8.02566201 697.03226875 3.34705173 697.02746071 -1.33192973 697.00816286 C-3.01854065 697.00440893 -4.70518329 697.00730721 -6.39176591 697.01777451 C-23.26665583 697.11500622 -37.06515472 693.52225733 -49.74739075 681.81370544 C-61.06727595 669.7732526 -64.32927904 656.18534746 -63.845047 640.16917419 C-63.07438121 626.54302958 -56.84753874 614.9000454 -47.04426575 605.60667419 C-34.02029073 594.83992184 -20.79496702 593.04903392 -4.51379395 593.11593628 C-2.80248241 593.11192415 -1.09117356 593.10659489 0.62013024 593.10007054 C5.29995719 593.08597236 9.9796097 593.09033363 14.65944517 593.09778368 C19.7154807 593.10253541 24.77147674 593.08994934 29.82749939 593.079422 C38.58302188 593.06346479 47.33849812 593.05816934 56.09403419 593.05994987 C68.7682031 593.06233688 81.44229833 593.04632295 94.11644795 593.02549732 C114.70113631 592.99198705 135.28581806 592.9703157 155.87052917 592.95750427 C157.71734758 592.95635004 157.71734758 592.95635004 159.60147544 592.95517249 C164.58984124 592.95207034 169.57820706 592.94898752 174.56657289 592.94593244 C188.29224224 592.93740489 202.0179093 592.9265027 215.74357605 592.91453552 C217.58677239 592.91293349 217.58677239 592.91293349 219.46720503 592.9112991 C239.97283621 592.89319202 260.47845172 592.8671915 280.98406762 592.83640438 C293.62247726 592.81787634 306.26085166 592.80693623 318.89927509 592.80588246 C327.56242767 592.80477699 336.22555612 592.79680736 344.8886985 592.78349882 C349.88280756 592.77609834 354.87686381 592.77197021 359.8709774 592.77661705 C364.44987356 592.78083665 369.02866654 592.77581463 373.60754778 592.76370919 C375.25684937 592.7609599 376.90616084 592.76152428 378.55545894 592.76589029 C404.88732294 592.82992222 428.32157325 587.09018178 448.50260925 569.50120544 C449.4171991 568.78384216 449.4171991 568.78384216 450.3502655 568.05198669 C466.79367152 554.9796662 478.69246798 532.67300487 481.29167175 511.84983826 C483.81776007 483.72371599 478.48487191 458.57327482 460.47673035 436.37571716 C443.95321627 416.62866039 422.23511407 404.22564785 396.50260925 401.50120544 C384.09891444 400.6912022 371.6096505 400.95790957 359.18732166 400.99637711 C354.12125825 401.007595 349.05524141 400.99546371 343.98918152 400.9861908 C335.23051891 400.97316019 326.47195193 400.97422183 317.71328735 400.98478508 C305.03700827 400.99978832 292.36084034 400.98976325 279.68456751 400.97326589 C259.09591694 400.94686481 238.50729146 400.93594387 217.91862488 400.93699646 C216.07416789 400.93708394 216.07416789 400.93708394 214.19244915 400.9371732 C209.20976403 400.93743906 204.22707891 400.93775635 199.2443938 400.93813645 C185.51080382 400.93910382 171.7772146 400.93777284 158.04362488 400.93504333 C156.81307403 400.93480344 155.58252317 400.93456355 154.3146829 400.93431639 C133.78843421 400.9299082 113.2622088 400.91367208 92.73597383 400.88982254 C80.09156526 400.8757687 67.44724522 400.87285681 54.80283362 400.88444544 C46.14444901 400.89177418 37.48610902 400.88870012 28.82772869 400.877487 C23.83580186 400.8714223 18.84399997 400.87030311 13.8520813 400.88236427 C9.2779292 400.89334971 4.70399821 400.89046328 0.12985522 400.87682081 C-1.51981729 400.87433602 -3.16950711 400.8768721 -4.819161 400.88509469 C-22.62613644 400.96808075 -36.96777744 397.56289333 -50.20832825 384.97386169 C-61.06365246 373.24788861 -64.46505751 359.70337232 -63.876297 344.09495544 C-62.98423474 330.51547476 -56.64481935 318.63149602 -46.7903595 309.34886169 C-34.02729207 299.06448198 -21.77528117 297.04969051 -5.85751343 297.11593628 C-4.17125236 297.11192497 -2.48499401 297.10659619 -0.7987408 297.10007054 C3.81668526 297.08596043 8.43193462 297.09033757 13.04736936 297.09778368 C18.03262474 297.10253259 23.01783997 297.08995161 28.00308228 297.079422 C36.63856529 297.06345831 45.27400141 297.05817002 53.90949821 297.05994987 C66.4155758 297.06233697 78.92157871 297.0463217 91.42763675 297.02549732 C111.74648606 296.99197802 132.06532868 296.97031361 152.38420105 296.95750427 C153.59971419 296.95673478 154.81522734 296.95596529 156.06757421 296.95517249 C160.99175995 296.95207061 165.91594569 296.94898779 170.84013146 296.94593244 C184.37598184 296.93741157 197.91182988 296.92650767 211.44767761 296.91453552 C212.6589759 296.9134675 213.8702742 296.91239948 215.1182785 296.9112991 C235.35156928 296.89317473 255.58484424 296.86716251 275.81811959 296.83640438 C288.28370763 296.81790034 300.74926007 296.80693772 313.21486206 296.80588246 C321.76686274 296.80477468 330.31883907 296.79678183 338.87082946 296.78349882 C343.79669217 296.77611797 348.72250158 296.77195324 353.64836884 296.77661705 C358.1708205 296.78085762 362.69316833 296.77576001 367.21560503 296.76370919 C368.83878067 296.7609751 370.46196637 296.76149872 372.08513837 296.76589029 C380.63074028 296.78711629 389.06133066 296.48293764 397.56715488 295.6178751 C398.71368912 295.50323532 398.71368912 295.50323532 399.88338565 295.38627958 C417.64667054 293.40501831 433.99617264 286.2251941 447.50260925 274.50120544 C448.69757019 273.52087341 448.69757019 273.52087341 449.91667175 272.52073669 C467.51843618 257.56196167 478.38747204 236.31068777 481.50260925 213.50120544 C483.57647177 185.16371203 477.55162005 160.08565077 458.80729675 138.09104919 C442.83204369 120.13919702 422.54966335 108.46431851 398.50260925 105.50120544 C396.0693352 105.41316118 393.6340376 105.37292938 391.19917202 105.37092018 C390.14233556 105.36800504 390.14233556 105.36800504 389.06414887 105.365031 C386.70942459 105.35972776 384.35475937 105.3614703 382.00003052 105.36317444 C380.29217401 105.36075508 378.58431809 105.35789241 376.876463 105.35462511 C372.18765092 105.34688345 367.4988535 105.3452533 362.81003582 105.34457397 C357.75121627 105.34273215 352.69240524 105.335124 347.6335907 105.32809448 C338.8670964 105.31657377 330.10060401 105.30832678 321.33410454 105.30197525 C307.47184866 105.2916417 293.60961668 105.27107585 279.74737549 105.24885559 C275.00289448 105.241376 270.25841337 105.23396223 265.51393223 105.22656822 C264.32823441 105.22471766 263.1425366 105.22286709 261.92090855 105.22096045 C248.42609041 105.20003653 234.93126962 105.18120713 221.43644714 105.16331482 C220.20297287 105.16167664 218.9694986 105.16003846 217.69864631 105.15835063 C197.71728665 105.13207494 177.73592514 105.11342587 157.75455552 105.09672292 C137.23095939 105.07928989 116.70739944 105.0504316 96.18383223 105.01183355 C83.53032821 104.98846137 70.87688317 104.97444147 58.22335739 104.97250591 C49.54706755 104.97039325 40.87083631 104.95743646 32.1945728 104.93602659 C27.19237233 104.92402415 22.19028819 104.91682854 17.18807411 104.92273903 C12.601564 104.92806116 8.01529055 104.91946835 3.42881984 104.90018265 C1.77671093 104.8956339 0.12457864 104.8960405 -1.52752531 104.90213104 C-19.86203837 104.96364644 -36.46556142 102.22101406 -50.2434845 88.97386169 C-61.01743861 77.15425519 -64.45990058 63.74754775 -63.88020325 48.09886169 C-62.9453849 33.82671373 -56.34110713 22.43932274 -46.11457825 12.75901794 C-32.8248952 1.2941869 -16.82194842 -0.10807611 0 0 Z " fill="#FFFFFF" transform="translate(570.4973907470703,589.4987945556641)"/>
<path d="M0 0 C2.28318219 1.68437806 4.35509565 3.46087821 6.43359375 5.390625 C7.13097656 6.009375 7.82835938 6.628125 8.546875 7.265625 C19.08424349 17.10844001 23.90511886 29.24272951 24.52674353 43.53183138 C24.56313435 45.84802489 24.56990366 48.16236141 24.56489563 50.47883606 C24.5680692 51.80051829 24.5680692 51.80051829 24.57130688 53.14890116 C24.57726913 56.08341102 24.57630944 59.01787742 24.57543945 61.95239258 C24.57847343 64.06377739 24.58199555 66.17516155 24.58596802 68.2865448 C24.5938386 72.82521957 24.59899496 77.36388654 24.60225868 81.90256691 C24.60818443 89.08510856 24.62473921 96.26760108 24.64360046 103.45011902 C24.6499373 105.91220185 24.65626293 108.37428472 24.66257763 110.83636761 C24.66574344 112.06912123 24.66890925 113.30187485 24.672171 114.57198465 C24.7142004 131.28634378 24.74722601 148.00067941 24.75952148 164.71508789 C24.76790809 176.00008512 24.79041841 187.28495994 24.82887715 198.56989592 C24.84861197 204.53657905 24.86105072 210.50307929 24.85604286 216.46979713 C24.8513884 222.0833622 24.86524584 227.69658056 24.89305496 233.31007576 C24.89995234 235.3646862 24.90010904 237.41933259 24.89285469 239.4739418 C24.84459255 254.68438977 25.91793804 266.74063062 37.09375 278.07421875 C48.00348135 288.03959978 60.40540971 288.69085437 74.58892822 288.65805054 C76.12598351 288.66179111 77.66303691 288.66639425 79.20008731 288.67178118 C83.40746421 288.68397621 87.61476138 288.68375486 91.8221519 288.68139243 C96.36626447 288.68098338 100.91035179 288.69203181 105.45445251 288.70150757 C114.35104212 288.71809918 123.24760521 288.72361628 132.144209 288.72473232 C139.37786873 288.72568364 146.61151973 288.72979811 153.8451767 288.73613358 C174.36705226 288.75374072 194.88890694 288.76297323 215.41079012 288.76147263 C216.51643543 288.76139272 217.62208075 288.7613128 218.76123047 288.76123047 C219.86823023 288.76114871 220.97522999 288.76106695 222.1157752 288.76098271 C240.05430094 288.76016989 257.99274271 288.77930797 275.93124416 288.8075072 C294.36323011 288.83625291 312.79517513 288.85004658 331.22718406 288.84831965 C341.57019585 288.84765635 351.91311958 288.85312251 362.25611115 288.87467575 C371.06245543 288.89290969 379.86867173 288.89721667 388.67502674 288.8836569 C393.16478018 288.87713853 397.65428826 288.87696907 402.14401817 288.8943634 C406.26106323 288.9101493 410.3776695 288.90717468 414.49470422 288.88979514 C415.97716204 288.88673734 417.45965307 288.89031123 418.94207171 288.90151529 C433.24165176 289.00235829 445.81399868 286.50129379 456.43359375 276.390625 C465.79597862 265.07345648 466.88271332 252.80942547 466.8659668 238.63793945 C466.87500096 237.07967867 466.8853322 235.52142495 466.89685059 233.96318054 C466.92425266 229.7655995 466.93368207 225.56815391 466.93970466 221.37049508 C466.94913239 216.97156754 466.9753391 212.57273946 466.99971008 208.1738739 C467.04325834 199.85859099 467.07187682 191.54332751 467.09503347 183.22796553 C467.12214797 173.75503983 467.16605545 164.28221475 467.21132219 154.8093611 C467.30400114 135.33650231 467.37575829 115.8636169 467.43359375 96.390625 C466.56759123 96.39233374 466.56759123 96.39233374 465.68409371 96.394077 C431.43815912 96.4612657 397.19223956 96.51271218 362.94625337 96.54382099 C358.83086802 96.54757294 354.71548281 96.55145592 350.60009766 96.55541992 C349.78082632 96.55620685 348.96155498 96.55699378 348.11745724 96.55780456 C334.86593072 96.5708452 321.6144434 96.59449162 308.3629401 96.62208339 C294.7575353 96.65017498 281.15215097 96.66680919 267.54671836 96.67289048 C259.15687897 96.67699915 250.76715038 96.68995852 242.37734511 96.7143744 C236.6178571 96.73027797 230.85842605 96.73501494 225.09891769 96.73112913 C221.77992556 96.72921472 218.46128159 96.7337314 215.14229774 96.74824142 C211.5336168 96.76324074 207.92540396 96.75955112 204.31671143 96.75138855 C202.7641264 96.76449634 202.7641264 96.76449634 201.18017602 96.77786893 C186.81545863 96.69047817 173.8806244 92.23171499 163.27734375 82.3671875 C152.43958799 70.74874595 147.87314596 57.49009945 148.1875 41.75390625 C149.24270563 27.33276257 154.89902168 15.30661899 165.43359375 5.390625 C174.06019804 -1.75107199 183.88084808 -6.72704024 195.20775795 -6.74080276 C196.39390965 -6.74464391 197.58006135 -6.74848505 198.80215704 -6.7524426 C200.75883183 -6.75114287 200.75883183 -6.75114287 202.7550354 -6.74981689 C204.15379365 -6.75240072 205.55255116 -6.75541393 206.95130765 -6.7588203 C210.79950292 -6.76689165 214.64767954 -6.76867995 218.49588227 -6.76941776 C222.64464967 -6.77126811 226.79340739 -6.77881542 230.94216919 -6.78555298 C240.01669319 -6.7991384 249.09121278 -6.80516151 258.16574526 -6.80956364 C263.8323644 -6.81232604 269.49898183 -6.81656343 275.16559982 -6.82106781 C290.85555985 -6.83326139 306.54551851 -6.84356011 322.23548317 -6.8469429 C323.74198075 -6.84727225 323.74198075 -6.84727225 325.27891263 -6.84760825 C326.28564795 -6.84782653 327.29238327 -6.84804481 328.32962573 -6.8482697 C330.36965283 -6.84871317 332.40967993 -6.84915973 334.44970703 -6.84960938 C335.46163094 -6.8498308 336.47355486 -6.85005223 337.51614313 -6.85028037 C353.90826482 -6.8542273 370.30034203 -6.87167772 386.69244654 -6.8949689 C403.52302793 -6.91868997 420.35358701 -6.93114512 437.18418539 -6.93231082 C446.63346171 -6.93322722 456.0826801 -6.9389707 465.53194046 -6.95713043 C473.57943553 -6.97254169 481.62685476 -6.97764587 489.67436178 -6.96939233 C493.77887567 -6.96548929 497.88323689 -6.96639843 501.98773193 -6.98044968 C505.7494777 -6.99320952 509.51095639 -6.99197295 513.2727019 -6.97985896 C515.26933531 -6.97698418 517.26597342 -6.98882202 519.26257002 -7.00128102 C533.70400158 -6.92209403 545.58701839 -2.41022623 556.24609375 7.578125 C570.17015373 22.46246498 570.88063317 38.19731024 570.82177734 57.46704102 C570.82584711 59.70544185 570.83119126 61.94384067 570.83770752 64.18223572 C570.85134417 70.24050137 570.84609601 76.29861315 570.83657026 82.35688138 C570.82894818 88.71724932 570.83602695 95.07760453 570.84072876 101.43797302 C570.84653055 112.80851341 570.83722972 124.17897615 570.82195075 135.54950099 C570.80857175 145.82315568 570.81085854 156.09670852 570.82470703 166.37036133 C570.84082882 178.33586528 570.84670034 190.30130753 570.83787024 202.26682609 C570.83321639 208.58745542 570.83250484 214.90801489 570.84247971 221.2286396 C570.85121643 227.18035713 570.84500621 233.13188468 570.82779694 239.08358192 C570.82386637 241.25459225 570.82490641 243.42561886 570.83158493 245.59662247 C570.87736032 262.00389788 569.64829851 277.75106726 564.74609375 293.515625 C564.49190674 294.34271973 564.23771973 295.16981445 563.97583008 296.02197266 C552.69775287 331.14908172 524.95771074 361.21637731 492.66015625 378.32421875 C472.09286797 388.68521987 450.40884417 392.54200042 427.58590698 392.53779602 C425.96125995 392.54109876 424.33661373 392.54482519 422.71196854 392.5489375 C418.25749236 392.55891931 413.80302965 392.56266813 409.34854388 392.56532681 C404.53976038 392.56924135 399.73098743 392.57881898 394.92221069 392.58753967 C383.31243443 392.60727367 371.70265734 392.61736728 360.09286851 392.62626746 C354.61762796 392.63065617 349.14238838 392.63602153 343.66714859 392.64125633 C325.45158273 392.65826701 307.23601745 392.67275877 289.02044487 392.68000507 C284.29667027 392.68191479 279.57289567 392.68383515 274.84912109 392.68579102 C273.08813818 392.68651663 273.08813818 392.68651663 271.29157986 392.6872569 C252.29533288 392.69554819 233.29914906 392.7208706 214.30292962 392.75337169 C194.77369456 392.78651062 175.24449151 392.80446007 155.7152282 392.80764931 C144.7610184 392.8098083 133.80690064 392.81846681 122.85271835 392.84411049 C113.51887534 392.86591118 104.18514674 392.87382219 94.85128115 392.86414371 C90.09713504 392.85962575 85.3432245 392.86133759 80.58911133 392.88090515 C33.26577547 393.064732 -5.00595996 383.5566582 -39.56640625 349.390625 C-65.75870794 322.8888131 -79.74585077 288.01874155 -79.70684814 250.84757996 C-79.70981927 249.94165944 -79.71279039 249.03573892 -79.71585155 248.10236627 C-79.72445672 245.09582244 -79.72603977 242.0893188 -79.72753906 239.08276367 C-79.73217292 236.91521623 -79.73719834 234.7476696 -79.74258423 232.5801239 C-79.75565265 226.71226204 -79.7621419 220.84441159 -79.76659489 214.97653747 C-79.76953367 211.30557272 -79.7736399 207.63461104 -79.77809906 203.96364784 C-79.79175726 192.46320842 -79.801433 180.96277606 -79.80530095 169.46232909 C-79.8097824 156.2133457 -79.82734149 142.96446544 -79.85630155 129.71551341 C-79.87794792 119.45446952 -79.88800676 109.1934546 -79.88934207 98.93238813 C-79.89038766 92.81253764 -79.89624357 86.69278432 -79.91416168 80.57295799 C-79.93069424 74.81499104 -79.93277271 69.0571938 -79.92402267 63.2992115 C-79.92325517 61.1938214 -79.92755696 59.08842197 -79.93748093 56.98305511 C-80.01801489 38.82388267 -78.81774343 22.37691326 -65.73046875 8.3671875 C-47.86166003 -7.95342119 -21.377769 -13.40584601 0 0 Z " fill="#FFFFFF" transform="translate(2047.56640625,893.609375)"/>
<path d="M0 0 C1.71700928 -0.00258841 3.43401797 -0.00560288 5.15102583 -0.0090034 C9.84187341 -0.01702014 14.53270564 -0.01885997 19.22355926 -0.01960087 C24.29317814 -0.02146064 29.36278923 -0.02901231 34.43240356 -0.03573608 C45.50245963 -0.04927954 56.57251206 -0.0553372 67.64257503 -0.05974674 C74.55888301 -0.06251455 81.47518961 -0.06675274 88.39149666 -0.07125092 C107.55515295 -0.08343577 126.71880814 -0.09373832 145.88246822 -0.09712601 C147.10730275 -0.09734557 148.33213727 -0.09756514 149.59408799 -0.09779136 C150.82176818 -0.09800964 152.04944837 -0.09822791 153.314331 -0.09845281 C155.80188493 -0.09889627 158.28943886 -0.09934283 160.7769928 -0.09979248 C162.62784233 -0.10012463 162.62784233 -0.10012463 164.51608277 -0.10046348 C184.52045372 -0.10441361 204.52478829 -0.1218777 224.52914517 -0.145152 C245.08564488 -0.16887512 265.64212632 -0.18132821 286.19863993 -0.18249393 C297.73319487 -0.18340986 309.26770234 -0.18914227 320.80224419 -0.20731354 C330.62042335 -0.2227271 340.43854033 -0.22782735 350.2567293 -0.21957543 C355.2629038 -0.21567412 360.26895313 -0.21657344 365.27511215 -0.23063278 C369.86381864 -0.24340174 374.45230627 -0.24214798 379.04101259 -0.23004207 C380.69498134 -0.22809033 382.34896575 -0.23113917 384.00291251 -0.23988643 C401.61238677 -0.32707245 416.56145835 2.50217964 429.78504944 14.94512939 C439.89633255 25.68717308 444.89063466 38.41330432 444.84510803 53.20245361 C444.32832671 67.68900094 439.37633495 79.47277012 429.17176819 90.02325439 C415.01219345 102.9432704 399.20679469 104.4470432 380.83662415 104.39872742 C379.12190234 104.40158583 377.40718182 104.40532589 375.69246364 104.40986592 C371.00319782 104.419805 366.31400718 104.41748463 361.62473583 104.41313899 C356.55846472 104.41065513 351.49221299 104.4197409 346.4259491 104.42752075 C337.65242933 104.43954827 328.87892771 104.44467277 320.10540009 104.44540215 C307.40412173 104.44672998 294.70288727 104.46186108 282.00162444 104.48089731 C261.37149549 104.51172038 240.74136544 104.53589397 220.11122131 104.55377197 C218.87728074 104.55484465 217.64334017 104.55591733 216.37200746 104.55702252 C202.60868812 104.56883989 188.84536834 104.57904608 175.08204651 104.58746338 C170.09242247 104.59053732 165.10279845 104.59362612 160.11317444 104.59674072 C158.88195528 104.59750606 157.65073613 104.5982714 156.3822073 104.59905993 C135.83249268 104.61215393 115.28280985 104.63681017 94.73311877 104.67048413 C82.06859889 104.69074171 69.40414708 104.70106798 56.73961088 104.69849492 C48.05728243 104.69745767 39.37500772 104.70713177 30.69269803 104.72513395 C25.68831732 104.73515004 20.68405553 104.74033816 15.67966843 104.73236656 C11.09018691 104.72514305 6.50093618 104.73186988 1.91148385 104.74925197 C0.25947452 104.75310697 -1.39255621 104.75200971 -3.04455599 104.74519508 C-26.51846644 104.65611406 -47.92323786 110.74594221 -66.14854431 126.14044189 C-67.33383728 127.10723877 -67.33383728 127.10723877 -68.54307556 128.09356689 C-84.01499859 141.25079278 -94.34672833 158.42772365 -99.14854431 178.14044189 C-99.37284119 179.04278564 -99.59713806 179.94512939 -99.82823181 180.87481689 C-105.01329792 206.01883609 -99.47588128 231.4766637 -86.14854431 253.14044189 C-83.02607375 257.47915568 -79.76666319 261.58444974 -75.91026306 265.29278564 C-74.14854431 267.14044189 -74.14854431 267.14044189 -74.14854431 269.14044189 C-73.55944275 269.40598877 -72.97034119 269.67153564 -72.36338806 269.94512939 C-70.09042077 271.17181016 -68.57061081 272.4845653 -66.71104431 274.26544189 C-46.78898998 291.9453462 -22.00986168 296.0331871 3.76161194 296.31622314 C5.23346954 296.33423729 5.23346954 296.33423729 6.73506165 296.35261536 C10.82571172 296.40113275 14.91605743 296.44860971 19.00697327 296.46636963 C37.18397485 296.56023672 51.77928256 298.54263179 65.66395569 311.45294189 C76.18784706 322.75731325 80.32903251 337.0934312 80.06239319 352.22247314 C79.30190825 366.34777669 73.13489489 378.49736338 62.85145569 388.14044189 C50.93919919 397.6363332 38.55613205 400.45361327 23.60145569 400.44122314 C22.43050354 400.44550827 21.25955139 400.4497934 20.05311584 400.45420837 C17.57542055 400.4599335 15.09770846 400.46046539 12.62001038 400.45611572 C8.91820121 400.45299811 5.21722627 400.47629047 1.51551819 400.50177002 C-18.25219949 400.55540871 -38.27050731 399.6106804 -57.46104431 394.45294189 C-58.43920105 394.19730469 -59.41735779 393.94166748 -60.42515564 393.67828369 C-103.68767512 381.91511384 -141.74317786 354.13559514 -168.14854431 318.14044189 C-168.76729431 317.31673096 -169.38604431 316.49302002 -170.02354431 315.64434814 C-200.69760563 273.5385186 -211.41160811 220.13075145 -203.94883728 168.925354 C-198.70629506 136.3077152 -186.16792189 106.41378473 -166.14854431 80.14044189 C-165.51988464 79.31479736 -165.51988464 79.31479736 -164.87852478 78.47247314 C-152.61595834 62.6600854 -137.66838765 47.46654661 -121.14854431 36.14044189 C-120.56975525 35.73325928 -119.99096619 35.32607666 -119.39463806 34.90655518 C-83.67662323 9.79588074 -43.24940702 -0.02629291 0 0 Z " fill="#FFFFFF" transform="translate(1443.1485443115234,589.8595581054688)"/>
<path d="M0 0 C1.41753284 -0.00202869 2.83506466 -0.00494667 4.25259399 -0.00869751 C7.2161864 -0.01309802 10.179506 -0.00677365 13.14306641 0.00732422 C16.87914885 0.02426059 20.61458304 0.01437977 24.3506422 -0.00299931 C40.20602273 -0.06561395 55.68845283 0.2352524 71.2890625 3.3984375 C72.29743164 3.59179688 73.30580078 3.78515625 74.34472656 3.984375 C76.65964291 4.45895515 78.93951565 4.99281556 81.2265625 5.5859375 C82.03681885 5.79460449 82.8470752 6.00327148 83.68188477 6.21826172 C113.19729572 14.15284692 139.59405323 29.08762063 162.2890625 49.3984375 C162.84223145 49.88989258 163.39540039 50.38134766 163.96533203 50.88769531 C180.93505098 66.02271852 195.37475704 83.40017594 206.2890625 103.3984375 C206.63275879 104.02540527 206.97645508 104.65237305 207.33056641 105.29833984 C232.75003618 152.30825555 236.40066417 208.75004857 221.79296875 259.75 C214.35365182 284.25222196 202.02600813 307.00428607 185.2890625 326.3984375 C184.65355469 327.14351562 184.01804687 327.88859375 183.36328125 328.65625 C172.15333739 341.44951926 160.1317851 353.4755048 146.2890625 363.3984375 C145.69802734 363.82318359 145.10699219 364.24792969 144.49804688 364.68554688 C103.49272514 393.79888486 58.36808172 400.05013616 9.33054471 399.92133617 C4.14869764 399.91216393 -1.03309882 399.92631413 -6.2149353 399.93725586 C-16.32429707 399.95491244 -26.43353913 399.95126059 -36.54290532 399.9396053 C-44.76059916 399.9305271 -52.97825975 399.92936578 -61.19595718 399.93370056 C-62.37084945 399.93431349 -63.54574171 399.93492643 -64.75623677 399.93555793 C-67.14372285 399.93683696 -69.53120892 399.93813381 -71.91869499 399.9394483 C-94.22733477 399.95081453 -116.53590845 399.93779914 -138.84453739 399.91624683 C-157.96523884 399.89834664 -177.08584323 399.90151167 -196.20654297 399.91992188 C-218.46366061 399.94134219 -240.72072071 399.94975063 -262.97784722 399.93747282 C-265.35167765 399.93619872 -267.72550809 399.93494124 -270.09933853 399.93370056 C-271.26705558 399.93308346 -272.43477263 399.93246636 -273.63787504 399.93183056 C-281.84801272 399.92838359 -290.0581137 399.93419119 -298.2682457 399.94361877 C-308.26907941 399.95485159 -318.26978759 399.95177029 -328.27060698 399.9304958 C-333.36804614 399.9200078 -338.46527617 399.91582565 -343.56271362 399.92909241 C-348.23416359 399.94106667 -352.90521176 399.93437134 -357.5766256 399.9131822 C-359.26042232 399.90873782 -360.94425344 399.91093334 -362.62802778 399.92068535 C-378.52184242 400.00563391 -393.0050872 396.90654286 -405.21484375 385.9765625 C-415.65851281 374.96026407 -421.03558734 361.60287165 -420.7109375 346.3984375 C-419.57063812 330.58974153 -414.11584202 317.85985638 -402.2578125 307.19140625 C-392.81358066 300.19962816 -382.37078805 296.28009829 -370.65359592 296.26535892 C-369.95134597 296.2631159 -369.24909602 296.26087287 -368.52556577 296.25856188 C-366.16665053 296.25223277 -363.80779067 296.2529855 -361.4488678 296.25367737 C-359.74273723 296.25054325 -358.03660742 296.24696836 -356.33047861 296.24298996 C-351.63714964 296.23328981 -346.94383285 296.2297411 -342.25049531 296.22714698 C-337.19027587 296.22325348 -332.13006717 296.21361592 -327.06985474 296.20458984 C-318.29786968 296.18964663 -309.52588549 296.17810385 -300.7538929 296.16864204 C-288.05576761 296.15476745 -275.3576622 296.13357865 -262.6595512 296.11021351 C-242.03825693 296.07228487 -221.41695906 296.03732479 -200.7956543 296.00561523 C-198.94374638 296.0027645 -198.94374638 296.0027645 -197.05442619 295.99985617 C-179.54712691 295.97304407 -162.03982485 295.94916543 -144.53251981 295.92647117 C-142.68470497 295.92407521 -142.68470497 295.92407521 -140.79956055 295.92163086 C-138.95399969 295.91924066 -138.95399969 295.91924066 -137.07115478 295.91680218 C-116.53858895 295.89001232 -96.00604423 295.85560231 -75.47350115 295.81497711 C-62.81246418 295.79023186 -50.15144991 295.77188852 -37.49039262 295.7618215 C-28.807554 295.75441658 -20.12474585 295.73986924 -11.44192744 295.71975727 C-6.43571291 295.70839412 -1.42954745 295.70022995 3.57668114 295.70076561 C8.16692605 295.70119568 12.75706076 295.69239941 17.34727735 295.67651581 C19.00079305 295.67238699 20.65432125 295.67154726 22.30783951 295.67447991 C49.06117638 295.71607496 73.17740611 289.85913703 93.2890625 271.3984375 C94.21460938 270.55410156 95.14015625 269.70976563 96.09375 268.83984375 C113.42669704 252.29912282 124.71716063 229.87309711 125.4921875 205.68359375 C125.87985415 179.84573511 119.36893596 157.36762574 102.2890625 137.3984375 C101.5259375 136.3878125 100.7628125 135.3771875 99.9765625 134.3359375 C83.90693334 116.77145911 61.1657319 105.64061767 37.40557861 104.22686768 C28.45170032 103.9044622 19.49079461 103.9158964 10.53222656 103.88720703 C7.11243572 103.87139685 3.69309151 103.83839719 0.2734375 103.8046875 C-0.75187073 103.80770874 -1.77717896 103.81072998 -2.83355713 103.81384277 C-17.7742837 103.66102294 -30.70079164 98.953937 -41.64453125 88.65625 C-52.1043571 77.22755559 -56.18988351 63.52313576 -55.921875 48.31640625 C-55.13506404 33.70212127 -48.53991781 21.16068243 -37.7109375 11.3984375 C-25.46852529 2.37771271 -15.00089687 -0.0767558 0 0 Z " fill="#FFFFFF" transform="translate(1657.7109375,886.6015625)"/>
<path d="M0 0 C1.57233943 -0.00187121 3.1446784 -0.00417315 4.71701664 -0.00686532 C9.0128193 -0.0129515 13.3086024 -0.0128535 17.60440838 -0.01167095 C22.24741419 -0.01146613 26.89041384 -0.01699346 31.53341675 -0.02172852 C40.62124099 -0.03001845 49.70905874 -0.03278262 58.79688645 -0.03334089 C66.18872864 -0.0338169 73.58056869 -0.03587586 80.9724102 -0.03904152 C101.95517557 -0.04784404 122.93793583 -0.05246159 143.92070306 -0.05171105 C145.61582884 -0.05165111 145.61582884 -0.05165111 147.34519958 -0.05158997 C149.04240869 -0.05152864 149.04240869 -0.05152864 150.77390485 -0.05146609 C169.10012322 -0.05105986 187.42632102 -0.06062446 205.75253344 -0.07472833 C224.59479683 -0.08911426 243.43705021 -0.09599728 262.27931923 -0.09513456 C272.84767554 -0.09480332 283.4160103 -0.09751795 293.98436165 -0.10831261 C302.98445331 -0.11744688 311.98451364 -0.11956896 320.98460794 -0.11280318 C325.57011462 -0.10955254 330.1555613 -0.10942823 334.74106216 -0.11815643 C338.95131378 -0.1260874 343.16145846 -0.12452366 347.37170767 -0.1158723 C348.88245678 -0.11435167 350.39321413 -0.11609814 351.9039535 -0.12173238 C394.83119635 -0.27102782 430.59130018 13.94217261 461.29612732 44.13371277 C487.63158478 70.38462623 500.57122543 105.81640109 500.88964844 142.60635376 C500.8911043 144.70573132 500.88539079 146.80512597 500.87254333 148.90446472 C500.85852479 152.09454431 500.8931246 155.28176184 500.93089294 158.47160339 C500.99075173 174.29330696 499.66877294 188.10292793 488.29612732 200.13371277 C487.47112732 201.02058777 486.64612732 201.90746277 485.79612732 202.82121277 C484.97112732 203.58433777 484.14612732 204.34746277 483.29612732 205.13371277 C482.80886169 205.61453308 482.32159607 206.09535339 481.81956482 206.59074402 C471.8094324 215.96041773 459.15954603 218.61285938 445.85472107 218.38371277 C430.4402756 217.3008099 418.53557601 210.39146993 408.29612732 199.13371277 C398.04751846 186.40115024 396.70968509 172.56387296 396.67112732 156.88371277 C396.55573833 140.1726721 395.80957937 127.24790079 383.94065857 114.47355652 C376.71444838 108.07990822 368.41068612 105.01432375 358.90006161 104.99949169 C357.93570888 104.99596335 357.93570888 104.99596335 356.95187429 104.99236372 C354.78885263 104.98568528 352.6258912 104.98613159 350.46286011 104.98654175 C348.89982244 104.9832424 347.33678562 104.97951668 345.77374989 104.97540027 C341.4714247 104.96538015 337.16911346 104.96166345 332.86677825 104.95901096 C328.22923367 104.95510792 323.59170013 104.94552955 318.9541626 104.9367981 C307.75063865 104.91703326 296.54711379 104.90696727 285.34357676 104.89807031 C280.06764374 104.89368728 274.79171172 104.88832049 269.5157795 104.88308144 C251.9771861 104.86606883 234.43859333 104.85157479 216.89999294 104.8443327 C212.3483626 104.8424228 207.79673226 104.84050247 203.24510193 104.83854675 C202.11381574 104.83806301 200.98252954 104.83757927 199.81696195 104.83708087 C181.4920137 104.82878107 163.16713074 104.80344513 144.842211 104.77096608 C126.02845348 104.73789248 107.21472913 104.71988364 88.40094239 104.71668845 C77.83770294 104.7145236 67.27455869 104.70577846 56.71134758 104.68022728 C47.71488969 104.65851618 38.71855013 104.65047189 29.72206902 104.66019406 C25.13335717 104.66473761 20.54488943 104.66284934 15.95621109 104.64343262 C11.75087825 104.625792 7.54596744 104.62680586 3.34063006 104.64232991 C1.82373512 104.64470463 0.30681089 104.64038948 -1.21003933 104.62850126 C-13.87063271 104.53546468 -23.68721822 106.53908037 -33.47731018 114.93058777 C-42.03651795 123.39969862 -44.84810518 133.09566396 -45.57887268 144.82121277 C-46.65479131 157.70477109 -49.7318685 168.42215076 -58.70387268 178.13371277 C-59.22594299 178.74601746 -59.74801331 179.35832214 -60.28590393 179.98918152 C-69.26124921 189.88171536 -81.13554159 194.37803812 -94.21559143 195.41105652 C-108.4062552 195.8013388 -121.89456137 191.96973973 -133.01637268 182.88371277 C-143.11492016 173.28799752 -149.10698365 160.510399 -149.90699768 146.60246277 C-150.34644554 109.39587723 -138.43171078 74.09903786 -112.50856018 47.00090027 C-112.0480426 46.53135925 -111.58752502 46.06181824 -111.11305237 45.57804871 C-109.66746666 44.09639849 -108.25170395 42.58984761 -106.83668518 41.07902527 C-78.65031283 11.42005493 -39.97556198 -0.04540606 0 0 Z " fill="#FFFFFF" transform="translate(2117.703872680664,589.8662872314453)"/>
</svg>
